<mxfile host="app.diagrams.net" agent="Mozilla/5.0 (Windows NT 10.0; Win64; x64) AppleWebKit/537.36 (KHTML, like Gecko) Chrome/131.0.0.0 Safari/537.36" version="24.8.4">
  <diagram name="Page-1" id="f2C7okhfU_2KWWLTlUfj">
    <mxGraphModel dx="897" dy="344" grid="1" gridSize="10" guides="1" tooltips="1" connect="1" arrows="1" fold="1" page="1" pageScale="1" pageWidth="827" pageHeight="1169" math="0" shadow="0">
      <root>
        <mxCell id="0" />
        <mxCell id="1" parent="0" />
        <mxCell id="ZQC9xDUk0hvV3A3y6WX4-1" value="" style="whiteSpace=wrap;html=1;aspect=fixed;" vertex="1" parent="1">
          <mxGeometry x="120" y="20" width="350" height="350" as="geometry" />
        </mxCell>
        <mxCell id="ZQC9xDUk0hvV3A3y6WX4-2" value="Sign in" style="rounded=0;whiteSpace=wrap;html=1;" vertex="1" parent="1">
          <mxGeometry x="350" y="30" width="50" height="20" as="geometry" />
        </mxCell>
        <mxCell id="ZQC9xDUk0hvV3A3y6WX4-3" value="" style="rounded=0;whiteSpace=wrap;html=1;" vertex="1" parent="1">
          <mxGeometry x="410" y="30" width="50" height="20" as="geometry" />
        </mxCell>
        <mxCell id="ZQC9xDUk0hvV3A3y6WX4-4" value="" style="rounded=0;whiteSpace=wrap;html=1;" vertex="1" parent="1">
          <mxGeometry x="120" y="340" width="350" height="30" as="geometry" />
        </mxCell>
        <mxCell id="ZQC9xDUk0hvV3A3y6WX4-5" value="" style="whiteSpace=wrap;html=1;aspect=fixed;" vertex="1" parent="1">
          <mxGeometry x="530" y="20" width="350" height="350" as="geometry" />
        </mxCell>
        <mxCell id="ZQC9xDUk0hvV3A3y6WX4-7" value="" style="rounded=0;whiteSpace=wrap;html=1;" vertex="1" parent="1">
          <mxGeometry x="820" y="30" width="50" height="20" as="geometry" />
        </mxCell>
        <mxCell id="ZQC9xDUk0hvV3A3y6WX4-8" value="" style="rounded=0;whiteSpace=wrap;html=1;" vertex="1" parent="1">
          <mxGeometry x="530" y="340" width="350" height="30" as="geometry" />
        </mxCell>
        <mxCell id="ZQC9xDUk0hvV3A3y6WX4-9" value="" style="rounded=1;whiteSpace=wrap;html=1;" vertex="1" parent="1">
          <mxGeometry x="150" y="100" width="290" height="220" as="geometry" />
        </mxCell>
        <mxCell id="ZQC9xDUk0hvV3A3y6WX4-10" value="Restuarant Name" style="text;html=1;align=center;verticalAlign=middle;whiteSpace=wrap;rounded=0;" vertex="1" parent="1">
          <mxGeometry x="130" y="65" width="100" height="30" as="geometry" />
        </mxCell>
        <mxCell id="ZQC9xDUk0hvV3A3y6WX4-11" value="Logo" style="ellipse;shape=cloud;whiteSpace=wrap;html=1;" vertex="1" parent="1">
          <mxGeometry x="130" y="30" width="55" height="35" as="geometry" />
        </mxCell>
        <mxCell id="ZQC9xDUk0hvV3A3y6WX4-12" value="Product" style="rounded=0;whiteSpace=wrap;html=1;" vertex="1" parent="1">
          <mxGeometry x="170" y="120" width="70" height="50" as="geometry" />
        </mxCell>
        <mxCell id="ZQC9xDUk0hvV3A3y6WX4-14" value="Details" style="rounded=0;whiteSpace=wrap;html=1;" vertex="1" parent="1">
          <mxGeometry x="170" y="180" width="70" height="20" as="geometry" />
        </mxCell>
        <mxCell id="ZQC9xDUk0hvV3A3y6WX4-15" value="" style="rounded=0;whiteSpace=wrap;html=1;" vertex="1" parent="1">
          <mxGeometry x="260" y="120" width="70" height="50" as="geometry" />
        </mxCell>
        <mxCell id="ZQC9xDUk0hvV3A3y6WX4-16" value="" style="rounded=0;whiteSpace=wrap;html=1;" vertex="1" parent="1">
          <mxGeometry x="260" y="180" width="70" height="20" as="geometry" />
        </mxCell>
        <mxCell id="ZQC9xDUk0hvV3A3y6WX4-17" value="" style="rounded=0;whiteSpace=wrap;html=1;" vertex="1" parent="1">
          <mxGeometry x="350" y="120" width="70" height="50" as="geometry" />
        </mxCell>
        <mxCell id="ZQC9xDUk0hvV3A3y6WX4-18" value="" style="rounded=0;whiteSpace=wrap;html=1;" vertex="1" parent="1">
          <mxGeometry x="350" y="180" width="70" height="20" as="geometry" />
        </mxCell>
        <mxCell id="ZQC9xDUk0hvV3A3y6WX4-19" value="" style="rounded=0;whiteSpace=wrap;html=1;" vertex="1" parent="1">
          <mxGeometry x="170" y="220" width="70" height="50" as="geometry" />
        </mxCell>
        <mxCell id="ZQC9xDUk0hvV3A3y6WX4-20" value="" style="rounded=0;whiteSpace=wrap;html=1;" vertex="1" parent="1">
          <mxGeometry x="170" y="280" width="70" height="20" as="geometry" />
        </mxCell>
        <mxCell id="ZQC9xDUk0hvV3A3y6WX4-21" value="" style="rounded=0;whiteSpace=wrap;html=1;" vertex="1" parent="1">
          <mxGeometry x="350" y="220" width="70" height="50" as="geometry" />
        </mxCell>
        <mxCell id="ZQC9xDUk0hvV3A3y6WX4-22" value="" style="rounded=0;whiteSpace=wrap;html=1;" vertex="1" parent="1">
          <mxGeometry x="350" y="280" width="70" height="20" as="geometry" />
        </mxCell>
        <mxCell id="ZQC9xDUk0hvV3A3y6WX4-23" value="" style="rounded=0;whiteSpace=wrap;html=1;" vertex="1" parent="1">
          <mxGeometry x="260" y="220" width="70" height="50" as="geometry" />
        </mxCell>
        <mxCell id="ZQC9xDUk0hvV3A3y6WX4-24" value="" style="rounded=0;whiteSpace=wrap;html=1;" vertex="1" parent="1">
          <mxGeometry x="260" y="280" width="70" height="20" as="geometry" />
        </mxCell>
        <mxCell id="ZQC9xDUk0hvV3A3y6WX4-25" value="Cart" style="shape=step;perimeter=stepPerimeter;whiteSpace=wrap;html=1;fixedSize=1;size=10;" vertex="1" parent="1">
          <mxGeometry x="270" y="30" width="40" height="17.5" as="geometry" />
        </mxCell>
      </root>
    </mxGraphModel>
  </diagram>
</mxfile>
